<?xml version="1.0" standalone="no"?>
<!DOCTYPE svg PUBLIC "-//W3C//DTD SVG 1.1//EN" "http://www.w3.org/Graphics/SVG/1.1/DTD/svg11.dtd" >
<svg xmlns="http://www.w3.org/2000/svg">
<metadata></metadata>
<defs>
<font id="honoka_minchoregular" horiz-adv-x="1253" vert-adv-y="2048" >
<font-face units-per-em="2048" ascent="1800" descent="-248" />
<missing-glyph horiz-adv-x="588" />
<glyph horiz-adv-x="0" vert-adv-y="0" />
<glyph horiz-adv-x="682" />
<glyph unicode=" " horiz-adv-x="588" vert-adv-y="2027" />
<glyph unicode="!" horiz-adv-x="572" vert-adv-y="2027" d="M178 111q0 47 36 81q32 34 77 34q46 0 77 -34q36 -34 36 -81q0 -111 -113 -111t-113 111zM216 1295q0 168 77 168q79 0 79 -174q0 -147 -26 -509l-23 -360h-60l-23 360q-24 364 -24 515z" />
<glyph unicode="&#x22;" horiz-adv-x="716" vert-adv-y="2027" d="M133 1398q0 95 83 95t83 -95q0 -67 -14 -174l-28 -214h-85l-25 214q-14 107 -14 174zM430 1394q0 99 81 99q83 0 83 -95q0 -67 -14 -174l-26 -214h-83l-29 214q-12 91 -12 170z" />
<glyph unicode="#" vert-adv-y="2027" d="M117 521v87h239l66 352h-291v89h305l79 424l105 -18l-77 -406h271l75 424l107 -18l-75 -406h225v-89h-239l-64 -352h290v-87h-299l-97 -563l-105 18l95 545h-274l-107 -563l-106 18l103 545h-226zM465 608h272l63 352h-267z" />
<glyph unicode="$" vert-adv-y="2027" d="M150 307q0 115 103 115t103 -93q0 -70 -67 -97q87 -129 295 -135v600q-138 51 -218 103q-172 105 -172 283q0 164 117 263q101 86 273 97v90h81v-90q137 -7 238 -67q142 -81 142 -186q0 -113 -101 -113q-97 0 -97 97q0 62 62 91q-77 101 -244 107v-560l26 -10 q147 -56 224 -107q164 -109 164 -295q0 -200 -164 -307q-105 -65 -250 -71v-109h-81v109q-164 4 -295 85q-139 87 -139 200zM323 1113q0 -161 166 -236q16 -18 65 -32q10 -2 30 -9v536q-89 -8 -150 -49q-111 -74 -111 -210zM665 97q115 10 184 69q91 83 91 218 q0 129 -95 202q-53 40 -180 91v-580z" />
<glyph unicode="%" horiz-adv-x="1589" vert-adv-y="2027" d="M113 1089q0 202 105 309q71 75 176 75q150 0 228 -137q57 -104 57 -249q0 -178 -85 -285q-75 -97 -200 -97q-146 0 -224 133q-57 104 -57 251zM224 1089q0 -317 172 -317q168 0 168 315q0 321 -168 321q-172 0 -172 -319zM249 34l1036 1457l71 -50l-1035 -1455zM915 364 q0 204 105 309q73 75 176 75q150 0 230 -136q59 -105 59 -252q0 -174 -85 -281q-79 -99 -204 -99q-147 0 -222 135q-59 105 -59 249zM1030 364q0 -316 168 -316q170 0 170 314q0 321 -170 321q-168 0 -168 -319z" />
<glyph unicode="&#x26;" horiz-adv-x="1473" vert-adv-y="2027" d="M160 388q0 246 311 410q-168 218 -168 356q0 125 89 216q103 103 267 103q159 0 244 -93q71 -77 71 -192q0 -202 -354 -380q218 -260 416 -458q120 165 120 319q0 113 -200 117v56h499v-56q-105 -4 -150 -38q-42 -31 -64 -106q-65 -216 -154 -337q198 -222 358 -226v-59 h-281l-162 166q-172 -190 -410 -190q-200 0 -323 125q-109 109 -109 267zM305 410q0 -139 91 -230t232 -91q192 0 322 149q-211 225 -441 508q-204 -116 -204 -336zM430 1190q0 -83 49 -178q16 -30 54 -85q27 -38 35 -50q6 -8 10 -12l2 -2q16 6 30 16q243 123 243 305 q0 107 -61 170q-57 56 -143 56q-93 0 -156 -64q-63 -61 -63 -156z" />
<glyph unicode="'" horiz-adv-x="429" vert-adv-y="2027" d="M133 1398q0 95 83 95t83 -95q0 -67 -14 -174l-28 -214h-85l-25 214q-14 107 -14 174z" />
<glyph unicode="(" horiz-adv-x="740" vert-adv-y="2027" d="M182 554q0 551 368 1004l58 -35q-287 -428 -287 -971q0 -538 287 -970l-58 -33q-368 453 -368 1005z" />
<glyph unicode=")" horiz-adv-x="740" vert-adv-y="2027" d="M133 -418q287 432 287 970q0 541 -287 971l57 35q368 -451 368 -1004q0 -552 -368 -1005z" />
<glyph unicode="*" horiz-adv-x="506" vert-adv-y="2027" d="M10 1285q0 53 45 53q38 0 153 -104l24 -22l-6 31q-20 101 -20 157q0 49 47 49q50 0 50 -47q0 -40 -24 -159l-6 -29l26 22q111 104 150 104q46 0 46 -53q0 -38 -162 -93l-36 -12l38 -14q158 -57 158 -93q0 -55 -42 -55q-27 0 -148 111l-28 21l6 -31q22 -109 22 -159 q0 -49 -50 -49q-47 0 -47 49q0 44 22 159l6 29l-26 -21q-127 -109 -155 -109q-41 0 -41 55q0 30 160 93l38 14l-32 10q-168 59 -168 93z" />
<glyph unicode="+" vert-adv-y="2027" d="M117 578v93h461v473h103v-473h459v-93h-459v-497h-103v497h-461z" />
<glyph unicode="," horiz-adv-x="483" vert-adv-y="2027" d="M95 -145q143 46 153 177q-111 4 -111 97q0 103 105 103q118 0 118 -139q0 -230 -225 -309z" />
<glyph unicode="-" horiz-adv-x="597" vert-adv-y="2027" d="M81 539v110h438v-110h-438z" />
<glyph unicode="." horiz-adv-x="483" vert-adv-y="2027" d="M135 117q0 47 31 79q34 34 78 34q47 0 79 -34q31 -32 31 -79q0 -44 -31 -75q-32 -34 -79 -34q-46 0 -78 34q-31 31 -31 75z" />
<glyph unicode="/" horiz-adv-x="1013" vert-adv-y="2027" d="M109 -271l671 1780l87 -32l-673 -1782z" />
<glyph unicode="0" vert-adv-y="2027" d="M135 737q0 449 208 649q120 115 279 115q253 0 384 -236q117 -206 117 -530q0 -327 -121 -537q-131 -230 -374 -230q-244 0 -375 230q-118 212 -118 539zM289 735q0 -288 77 -470q93 -221 264 -221q176 0 267 229q71 178 71 460q0 299 -77 481q-89 216 -261 216 q-145 0 -234 -157q-107 -194 -107 -538z" />
<glyph unicode="1" vert-adv-y="2027" d="M263 1321v55q323 36 448 133v-1275q0 -93 61 -127q44 -24 208 -24v-63h-691v63q168 0 212 20q69 30 69 131v978q0 109 -107 109h-200z" />
<glyph unicode="2" vert-adv-y="2027" d="M170 20v81q68 289 412 570l34 28q164 127 220 202q77 105 77 222q0 162 -105 243q-77 60 -186 60q-173 0 -250 -111q-41 -60 -45 -125q97 -2 97 -95q0 -99 -97 -99q-119 0 -119 137q0 136 113 249q117 119 309 119q178 0 299 -93q142 -109 142 -295q0 -127 -75 -232 q-69 -101 -273 -232l-58 -37q-328 -210 -386 -467h537q124 0 164 55q36 49 71 236h58l-48 -416h-891z" />
<glyph unicode="3" vert-adv-y="2027" d="M154 285q0 145 123 145q103 0 103 -101q0 -93 -87 -93q-14 0 -24 2q8 -56 54 -103q91 -85 245 -85q157 0 258 102q97 97 97 244q0 137 -91 228q-99 101 -272 101h-101v81h101q143 0 234 91q97 97 97 245q0 119 -79 196q-83 84 -214 84t-224 -76q-53 -41 -71 -97 q95 0 95 -91q0 -101 -101 -101q-111 0 -111 129q0 125 137 224q126 89 291 89q210 0 328 -119q98 -97 98 -240q0 -291 -331 -358v-14q368 -73 368 -376q0 -166 -115 -283q-138 -143 -378 -143q-184 0 -313 103q-117 91 -117 216z" />
<glyph unicode="4" vert-adv-y="2027" d="M85 416v97l751 960h75v-970h263v-87h-263v-180q0 -97 39 -125q36 -24 163 -34v-57h-551v57q117 6 157 24q63 28 63 135v180h-697zM188 503h594v762z" />
<glyph unicode="5" vert-adv-y="2027" d="M188 303q0 131 125 131q103 0 103 -101q0 -40 -30 -68q-28 -27 -61 -27q-12 0 -22 2q12 -74 95 -129q87 -61 210 -61q144 0 235 91q109 110 109 314q0 163 -75 270q-95 130 -253 130q-216 0 -321 -219l-79 9l75 804h744l-27 -124h-632l-53 -515q124 125 320 125 q232 0 363 -169q95 -126 95 -289q0 -287 -200 -426q-123 -85 -285 -85q-133 0 -250 62q-186 101 -186 275z" />
<glyph unicode="6" vert-adv-y="2027" d="M176 669q0 468 204 689q129 143 323 143q137 0 232 -60q126 -79 126 -182q0 -113 -107 -113q-103 0 -103 95q0 68 68 97q-64 88 -204 88q-174 0 -281 -181q-115 -196 -121 -538h6q121 226 362 226q222 0 353 -167q95 -126 95 -319q0 -217 -137 -354q-129 -127 -319 -127 q-208 0 -340 151q-157 180 -157 552zM343 453q0 -178 93 -295q93 -114 231 -114q167 0 252 150q61 103 61 253q0 208 -109 321q-81 85 -198 85q-127 0 -218 -91q-112 -111 -112 -309z" />
<glyph unicode="7" vert-adv-y="2027" d="M194 1030l42 419h914v-95q-404 -568 -455 -1267q-10 -101 -95 -101q-75 0 -75 95q0 200 217 689q147 321 299 557h-566q-109 0 -142 -52q-40 -57 -72 -245h-67z" />
<glyph unicode="8" vert-adv-y="2027" d="M141 356q0 262 340 416q-291 141 -291 365q0 140 109 249q125 125 329 125q186 0 305 -95q124 -99 124 -258q0 -233 -315 -372q365 -160 365 -420q0 -192 -157 -305q-134 -101 -332 -101q-206 0 -343 111q-134 109 -134 285zM271 354q0 -128 87 -215q99 -99 258 -99 q170 0 269 99q81 81 81 207q0 141 -121 242q-51 44 -140 87q-121 60 -131 58l-30 -12q-273 -123 -273 -367zM327 1158q0 -115 91 -198q47 -43 119 -79q105 -53 114 -49q280 108 280 336q0 137 -107 214q-83 57 -190 57q-137 0 -228 -89q-79 -79 -79 -192z" />
<glyph unicode="9" vert-adv-y="2027" d="M137 1026q0 217 132 348q129 127 323 127q495 0 495 -695q0 -438 -180 -663q-141 -177 -351 -177q-170 0 -289 105q-75 66 -75 141q0 117 107 117q109 0 109 -99q0 -72 -62 -95q60 -85 198 -85q179 0 286 172q118 194 124 560h-6q-114 -220 -370 -220q-198 0 -317 123 q-124 133 -124 341zM287 1034q0 -167 71 -276q82 -120 232 -120q133 0 222 89q107 109 107 301q0 174 -89 287q-91 117 -234 117q-145 0 -232 -123q-77 -111 -77 -275z" />
<glyph unicode=":" horiz-adv-x="584" vert-adv-y="2027" d="M186 117q0 47 34 79q31 34 75 34q48 0 79 -34q34 -32 34 -79q0 -44 -34 -75q-31 -34 -79 -34q-44 0 -75 34q-34 31 -34 75zM186 899q0 111 109 111q48 0 79 -32q34 -34 34 -79q0 -44 -34 -77q-31 -32 -79 -32q-109 0 -109 109z" />
<glyph unicode=";" horiz-adv-x="584" vert-adv-y="2027" d="M148 -145q141 42 151 177q-111 8 -111 101q0 99 103 99q121 0 121 -139q0 -79 -38 -154q-63 -121 -190 -155zM188 899q0 111 109 111q46 0 79 -32q32 -32 32 -79q0 -46 -32 -77q-33 -32 -79 -32q-109 0 -109 109z" />
<glyph unicode="&#x3c;" vert-adv-y="2027" d="M97 586v71l1012 440l33 -91l-916 -382l916 -390l-33 -89z" />
<glyph unicode="=" vert-adv-y="2027" d="M117 388v95h1023v-95h-1023zM117 748v94h1023v-94h-1023z" />
<glyph unicode="&#x3e;" vert-adv-y="2027" d="M115 234l917 390l-917 382l33 91l1010 -440v-71l-1010 -441z" />
<glyph unicode="?" horiz-adv-x="1021" vert-adv-y="2027" d="M97 1105q0 131 105 235q119 121 303 121q198 0 317 -117q97 -95 97 -251q0 -198 -214 -341l-61 -41q-149 -99 -149 -277v-48h-81v52q0 186 136 312l36 36q105 99 135 147q41 65 41 156q0 135 -79 216q-75 81 -196 81q-131 0 -220 -97q-51 -59 -59 -137q101 -10 101 -97 q0 -97 -99 -97q-113 0 -113 147zM350 111q0 45 36 79q34 36 79 36q44 0 76 -34q35 -34 35 -81q0 -111 -111 -111q-115 0 -115 111z" />
<glyph unicode="@" horiz-adv-x="1823" vert-adv-y="2027" d="M152 697q0 321 228 548q236 236 584 236q327 0 525 -196q178 -172 178 -445q0 -220 -127 -383q-150 -182 -372 -182q-150 0 -150 131q0 26 4 40q-129 -161 -278 -161q-221 0 -221 265q0 270 174 482q143 174 319 174q95 0 164 -73l16 47h123q-30 -91 -87 -309 q-97 -386 -97 -451q0 -66 69 -66q166 0 281 165q103 146 103 330q0 254 -184 414q-174 151 -442 151q-299 0 -489 -216q-176 -198 -176 -493q0 -297 174 -471q169 -169 454 -169q301 0 511 157l39 -60q-241 -172 -556 -172q-361 0 -571 206q-196 196 -196 501zM675 507 q0 -155 91 -155q163 0 275 297q88 228 88 357q0 142 -107 142q-149 0 -258 -239q-89 -196 -89 -402z" />
<glyph unicode="A" horiz-adv-x="1469" vert-adv-y="2027" d="M-6 20v57h12q148 0 212 161l493 1235h53l503 -1247q58 -143 218 -149v-57h-531v57q179 0 179 71q0 50 -22 98l-113 275h-572l-109 -285q-22 -62 -22 -89q0 -70 176 -70v-57h-477zM455 598h517l-259 651z" />
<glyph unicode="B" horiz-adv-x="1437" vert-adv-y="2027" d="M103 20v57q99 6 145 24q61 28 61 135v996q0 97 -38 122q-37 30 -168 40v55h630q198 0 330 -63q178 -89 178 -279q0 -267 -348 -333v-6q430 -73 430 -356q0 -392 -600 -392h-620zM447 248q0 -163 179 -163h65q475 0 475 319q0 327 -507 327h-212v-483zM447 804h216 q426 0 426 295q0 287 -394 287h-69q-56 0 -85 -10q-94 -18 -94 -144v-428z" />
<glyph unicode="C" horiz-adv-x="1481" vert-adv-y="2027" d="M123 729q0 356 218 578q192 194 475 194q222 0 390 -119q41 -30 57 -30q32 0 36 84h61v-408h-59q-30 146 -119 247q-137 153 -356 153q-295 0 -438 -256q-101 -184 -101 -428q0 -291 151 -477q156 -192 402 -192q376 0 500 420l76 -24q-66 -243 -224 -372 q-158 -131 -378 -131q-289 0 -477 190q-214 212 -214 571z" />
<glyph unicode="D" horiz-adv-x="1595" vert-adv-y="2027" d="M103 20v57q99 6 145 24q61 28 61 135v996q0 97 -38 122q-37 30 -168 40v55h618q315 0 499 -134q261 -192 261 -576q0 -484 -384 -654q-149 -65 -386 -65h-608zM451 238q0 -99 58 -127q41 -20 123 -20h73q255 0 378 87q234 161 234 570q0 638 -612 638h-73q-54 0 -97 -12 q-84 -20 -84 -142v-994z" />
<glyph unicode="E" horiz-adv-x="1417" vert-adv-y="2027" d="M103 20v57q111 10 148 26q58 26 58 133v998q0 95 -38 120q-37 30 -168 40v55h1136l26 -402h-61q-12 175 -77 252q-74 87 -323 87h-178q-85 0 -133 -24q-46 -24 -46 -128v-438h214q123 0 165 53q39 54 49 155h60v-495h-60q-10 101 -41 148q-42 68 -173 68h-214v-485 q0 -95 40 -125q46 -28 139 -28h178q239 0 321 71q95 82 109 301h61l-30 -439h-1162z" />
<glyph unicode="F" horiz-adv-x="1298" vert-adv-y="2027" d="M103 20v57q107 6 145 24q61 28 61 135v996q0 97 -38 122q-37 30 -168 40v55h1138l26 -400h-61q-10 145 -60 228q-67 109 -346 109h-174q-87 0 -133 -24q-46 -27 -46 -128v-442h216q127 0 165 55q39 60 49 155h60v-493h-60q-10 99 -39 146q-44 68 -175 68h-216v-487 q0 -99 60 -131q43 -22 162 -28v-57h-566z" />
<glyph unicode="G" horiz-adv-x="1585" vert-adv-y="2027" d="M123 727q0 360 220 580q194 194 473 194q222 0 390 -119q41 -30 57 -30q32 0 36 84h61v-400h-59q-28 138 -119 237q-135 155 -356 155q-295 0 -438 -256q-101 -184 -101 -433q0 -301 155 -491q154 -193 394 -193q225 0 340 139q52 61 52 152v121q0 103 -52 129 q-36 20 -156 30v55h532v-55q-99 -10 -132 -26q-60 -24 -60 -133v-441h-43l-64 119q-166 -175 -431 -175q-301 0 -493 194q-206 210 -206 563z" />
<glyph unicode="H" horiz-adv-x="1661" vert-adv-y="2027" d="M103 20v57q103 6 145 24q61 28 61 135v996q0 103 -52 130q-39 22 -154 32v55h552v-55q-99 -8 -146 -28q-60 -24 -60 -134v-430h763v428q0 101 -62 130q-43 24 -152 34v55h566v-55q-119 -10 -162 -34q-50 -25 -50 -130v-994q0 -101 56 -131q41 -22 156 -28v-57h-556v57 q109 6 144 24q60 28 60 135v485h-763v-485q0 -103 50 -131q42 -22 156 -28v-57h-552z" />
<glyph unicode="I" horiz-adv-x="768" vert-adv-y="2027" d="M107 20v57q107 6 150 24q56 24 56 135v996q0 104 -50 130q-47 22 -156 32v55h558v-55q-101 -8 -144 -28q-64 -28 -64 -134v-996q0 -103 54 -131q45 -22 154 -28v-57h-558z" />
<glyph unicode="J" horiz-adv-x="958" vert-adv-y="2027" d="M18 192q0 125 111 125q105 0 105 -99q0 -87 -82 -101q34 -91 171 -91q136 0 184 126q26 64 26 246v834q0 103 -54 130q-45 26 -164 32v55h560v-55q-95 -8 -140 -28q-60 -24 -60 -134v-872q0 -408 -342 -408q-123 0 -212 66q-103 77 -103 174z" />
<glyph unicode="K" horiz-adv-x="1463" vert-adv-y="2027" d="M101 1394v55h570v-55q-107 -8 -152 -28q-64 -26 -64 -136v-507l569 544q39 42 39 68q0 55 -152 59v55h497v-55q-151 -14 -275 -131l-442 -418l531 -639q103 -119 255 -129v-57h-552v57q162 0 162 54q0 23 -71 113l-422 516l-139 -128v-396q0 -101 58 -131q41 -22 158 -28 v-57h-560v57q105 6 148 24q60 26 60 135v992q0 103 -60 132q-43 24 -158 34z" />
<glyph unicode="L" horiz-adv-x="1231" vert-adv-y="2027" d="M101 1394v55h566v-55q-115 -10 -158 -34q-52 -25 -52 -130v-992q0 -90 34 -117q40 -34 137 -34h124q252 0 333 95q69 89 91 271h56l-28 -433h-1095v57q101 6 146 24q62 28 62 135v994q0 101 -58 130q-43 24 -158 34z" />
<glyph unicode="M" horiz-adv-x="1934" vert-adv-y="2027" d="M79 1394v55h424l467 -1209l462 1209h407v-55q-97 -6 -146 -30q-59 -28 -59 -134v-990q0 -107 51 -135q42 -22 154 -28v-57h-548v57q107 6 146 24q58 26 58 139v1110h-6l-511 -1330h-71l-509 1328h-8v-1110q0 -105 52 -133q45 -22 146 -28v-57h-501v57q99 6 145 24 q59 28 59 137v990q0 108 -53 136q-36 20 -159 30z" />
<glyph unicode="N" horiz-adv-x="1655" vert-adv-y="2027" d="M79 1394v55h367l847 -1192h6v979q0 100 -54 128q-45 24 -154 30v55h503v-55q-99 -8 -139 -26q-57 -28 -57 -132v-1236h-87l-915 1285h-6v-1047q0 -105 52 -133q45 -22 146 -28v-57h-501v57q99 6 145 24q59 28 59 137v990q0 108 -53 136q-36 20 -159 30z" />
<glyph unicode="O" horiz-adv-x="1623" vert-adv-y="2027" d="M123 739q0 346 218 568q194 194 477 194q281 0 475 -194q218 -222 218 -565q0 -364 -220 -584q-192 -192 -473 -192t-475 194q-220 220 -220 579zM291 742q0 -265 103 -445q143 -251 424 -251q243 0 390 202q134 184 134 487q0 324 -152 514q-143 181 -372 181 q-248 0 -394 -204q-133 -185 -133 -484z" />
<glyph unicode="P" horiz-adv-x="1302" vert-adv-y="2027" d="M103 20v57q107 6 145 24q61 28 61 135v994q0 99 -38 124q-37 30 -168 40v55h634q314 0 447 -146q87 -97 87 -236q0 -414 -566 -414h-256v-417q0 -101 56 -131q41 -22 160 -28v-57h-562zM449 731h196q468 0 468 324q0 327 -420 327h-63q-54 0 -97 -10q-84 -22 -84 -142 v-499z" />
<glyph unicode="Q" horiz-adv-x="1623" vert-adv-y="2027" d="M123 737q0 348 216 570q194 194 477 194q281 0 475 -194q218 -222 218 -568q0 -426 -325 -656q101 -180 234 -180q77 0 148 71l34 -41q-97 -127 -228 -127q-170 0 -293 220q-127 -60 -265 -60q-287 0 -475 192q-216 220 -216 579zM287 735q0 -501 341 -685l2 5 q-84 78 -84 183q0 95 68 162q71 73 186 73q127 0 220 -105q51 -53 132 -208q192 198 192 575q0 364 -192 556q-138 139 -334 139q-248 0 -396 -210q-135 -186 -135 -485zM626 210q0 -174 208 -174q67 0 134 23q81 26 77 38q-122 273 -265 273q-63 0 -109 -45 q-45 -46 -45 -115z" />
<glyph unicode="R" horiz-adv-x="1409" vert-adv-y="2027" d="M103 20v57q107 6 145 24q61 28 61 135v994q0 99 -38 124q-37 30 -168 40v55h641q208 0 331 -69q176 -99 176 -287q0 -206 -170 -307q-103 -57 -243 -65v-8q118 -42 229 -216q48 -77 165 -301q61 -119 194 -119v-57h-289q-131 330 -268 526q-113 153 -277 153h-143v-463 q0 -101 58 -133q41 -20 154 -26v-57h-558zM449 770h183q467 0 467 309q0 307 -392 307h-77q-54 0 -97 -12q-84 -20 -84 -142v-462z" />
<glyph unicode="S" horiz-adv-x="1245" vert-adv-y="2027" d="M143 24v473h57q22 -186 121 -295q128 -137 336 -137q137 0 218 76q87 77 87 211q0 101 -73 181q-65 71 -277 156l-38 16q-222 87 -291 138q-127 97 -127 258q0 180 133 287q123 97 309 97q162 0 323 -87q33 -20 49 -20q28 0 32 81h63v-418h-61q-16 155 -109 254 q-107 117 -291 117q-147 0 -234 -95q-69 -76 -69 -182q0 -181 265 -276l50 -17q321 -117 414 -222q87 -99 87 -236q0 -208 -169 -319q-122 -81 -291 -81q-186 0 -344 101q-46 30 -71 30q-38 0 -38 -91h-61z" />
<glyph unicode="T" horiz-adv-x="1265" vert-adv-y="2027" d="M14 1075l30 374h1192l19 -374h-61q-10 103 -48 184q-57 123 -281 123h-166v-1146q0 -99 55 -131q42 -22 161 -28v-57h-570v57q116 6 158 24q57 24 57 135v1146h-152q-214 0 -277 -113q-44 -71 -60 -194h-57z" />
<glyph unicode="U" horiz-adv-x="1605" vert-adv-y="2027" d="M42 1394v55h566v-55q-109 -6 -161 -34q-49 -25 -49 -130v-628q0 -527 442 -527q439 0 439 527v630q0 104 -53 132q-42 24 -149 30v55h503v-55q-93 -6 -139 -26q-63 -26 -63 -136v-638q0 -622 -552 -622q-571 0 -571 610v648q0 103 -57 132q-48 22 -156 32z" />
<glyph unicode="V" horiz-adv-x="1455" vert-adv-y="2027" d="M-6 1394v55h537v-55q-179 -4 -179 -73q0 -40 24 -99l378 -1010l386 1022q22 59 22 91q0 65 -174 69v55h483v-55q-162 -4 -226 -162l-485 -1256h-59l-483 1258q-58 154 -224 160z" />
<glyph unicode="W" horiz-adv-x="1946" vert-adv-y="2027" d="M0 1392v57h525v-55q-109 -4 -147 -22q-39 -18 -39 -67q0 -42 19 -105l289 -949h6l305 933l-14 48q-33 128 -108 148q-40 10 -99 14v55h518v-55q-87 -4 -118 -8q-70 -14 -70 -77q0 -28 18 -93l279 -955h6l285 963q16 57 16 85q0 81 -190 85v55h479v-57q-47 0 -87 -14 q-81 -20 -121 -154l-376 -1236h-65l-311 1050h-6l-341 -1050h-65l-382 1224q-44 138 -115 162q-36 14 -91 18z" />
<glyph unicode="X" horiz-adv-x="1461" vert-adv-y="2027" d="M0 20v57q160 2 289 174l368 497l-336 460q-133 182 -285 186v55h550v-55q-170 -4 -170 -63q0 -34 55 -111l279 -382l301 403q48 64 48 97q0 52 -176 56v55h509v-55q-155 -4 -286 -178l-338 -450l372 -507q131 -180 287 -182v-57h-552v57q168 0 168 62q0 37 -51 107 l-315 427l-335 -447q-47 -66 -47 -93q0 -56 176 -56v-57h-511z" />
<glyph unicode="Y" horiz-adv-x="1389" vert-adv-y="2027" d="M-6 1394v55h556v-55q-176 -4 -176 -67q0 -42 36 -107l309 -541l340 578q20 32 20 62q0 69 -188 75v55h511v-55q-153 -4 -260 -180l-374 -616v-362q0 -97 60 -131q41 -22 156 -28v-57h-568v57q117 6 156 24q58 28 58 135v344l-388 654q-95 156 -248 160z" />
<glyph unicode="Z" horiz-adv-x="1281" vert-adv-y="2027" d="M69 20v101l917 1259h-364q-266 0 -349 -71q-89 -77 -111 -246h-57l28 386h1017v-75l-926 -1279h467q240 0 323 59q107 70 123 299h57l-30 -433h-1095z" />
<glyph unicode="[" horiz-adv-x="689" vert-adv-y="2027" d="M234 -406v1954h368v-69h-238v-1816h238v-69h-368z" />
<glyph unicode="\" vert-adv-y="2027" d="M0 1394v55h485v-55q-154 -4 -154 -79q0 -32 37 -89l277 -436l307 463q26 36 26 68q0 69 -170 73v55h451v-55q-43 0 -83 -20q-53 -26 -148 -158l-295 -424h374v-69h-424v-177h424v-69h-424v-241q0 -103 59 -131q48 -22 155 -28v-57h-556v57q108 6 152 26q59 28 59 133v241 h-419v69h419v177h-419v69h370l-289 442q-89 132 -145 148q-29 12 -69 12z" />
<glyph unicode="]" horiz-adv-x="689" vert-adv-y="2027" d="M91 -337h238v1816h-238v69h366v-1954h-366v69z" />
<glyph unicode="^" horiz-adv-x="1013" vert-adv-y="2027" d="M59 725l448 526l445 -526l-75 -60l-370 452l-372 -452z" />
<glyph unicode="_" horiz-adv-x="1013" vert-adv-y="2027" d="M0 -147h1014v-101h-1014v101z" />
<glyph unicode="`" horiz-adv-x="1013" vert-adv-y="2027" d="M271 1396l99 95l246 -252l-42 -45z" />
<glyph unicode="a" horiz-adv-x="1100" vert-adv-y="2027" d="M113 263q0 321 544 355l103 6v35q0 305 -239 305q-159 0 -216 -105q57 -10 57 -73q0 -87 -89 -87q-99 0 -99 99q0 83 93 152q111 84 266 84q356 0 356 -357v-412q0 -202 69 -202q42 0 72 62l39 -30q-45 -105 -146 -105q-143 0 -149 174q-123 -178 -344 -178 q-133 0 -222 71q-95 78 -95 206zM253 275q0 -93 60 -152q57 -56 144 -56q119 0 212 74q64 51 91 132v279l-85 -4q-422 -21 -422 -273z" />
<glyph unicode="b" horiz-adv-x="1219" vert-adv-y="2027" d="M32 1388v61q172 4 305 32v-655q124 202 340 202q168 0 289 -119q143 -145 143 -392q0 -250 -145 -396q-124 -123 -291 -123q-210 0 -332 170l-66 -164h-69v1259q0 93 -46 111q-29 14 -128 14zM337 370q0 -126 132 -222q89 -65 190 -65q155 0 240 147q67 113 67 283 q0 229 -119 346q-85 85 -198 85q-148 0 -249 -138q-63 -85 -63 -172v-264z" />
<glyph unicode="c" horiz-adv-x="1085" vert-adv-y="2027" d="M117 503q0 247 148 396q129 135 331 135q170 0 285 -90q87 -69 87 -148q0 -105 -93 -105q-89 0 -89 83q0 60 48 79q-74 111 -230 111q-178 0 -265 -158q-72 -127 -72 -291q0 -188 97 -309q97 -125 252 -125q208 0 326 210l58 -45q-133 -258 -410 -258q-202 0 -335 137 q-138 142 -138 378z" />
<glyph unicode="d" horiz-adv-x="1245" vert-adv-y="2027" d="M117 509q0 251 144 398q123 121 289 121q212 0 337 -177v410q0 95 -47 113q-30 14 -133 14v61q166 0 311 32v-1273q0 -95 55 -117q40 -14 123 -14v-57h-303l-10 174q-119 -196 -335 -196q-172 0 -291 117q-140 142 -140 394zM259 515q0 -204 95 -323q90 -111 222 -111 q145 0 240 133q71 99 71 198v267q0 111 -125 200q-87 65 -194 65q-138 0 -225 -118q-84 -121 -84 -311z" />
<glyph unicode="e" horiz-adv-x="1132" vert-adv-y="2027" d="M117 505q0 253 144 398q127 131 323 131q190 0 309 -123q129 -129 129 -337v-35h-765v-36q0 -200 123 -325q101 -101 248 -101q217 0 336 212l54 -43q-129 -258 -414 -258q-212 0 -351 139q-136 140 -136 378zM265 616h620q-6 174 -101 269q-83 79 -202 79 q-140 0 -236 -122q-67 -90 -81 -226z" />
<glyph unicode="f" horiz-adv-x="635" vert-adv-y="2027" d="M53 923v75h189v139q0 170 95 265q83 83 211 83q127 0 204 -61q42 -36 42 -86q0 -89 -81 -89q-87 0 -87 80q0 35 23 63q-31 32 -95 32q-180 0 -180 -287v-139h281v-75h-281v-719q0 -87 48 -109q41 -18 136 -18v-57h-491v57q68 0 107 12q68 22 68 115v719h-189z" />
<glyph unicode="g" horiz-adv-x="1116" vert-adv-y="2027" d="M99 -127q0 198 295 244v6q-194 43 -194 156q0 99 123 135q-184 83 -184 267q0 164 136 265q113 82 266 82q122 0 213 -40q109 127 224 127q99 0 99 -85q0 -74 -73 -74q-65 0 -69 78q-80 -10 -125 -74q134 -91 134 -267q0 -186 -156 -275q-97 -56 -224 -56q-83 0 -176 24 q-73 -30 -73 -85q0 -101 224 -115l114 -8q383 -28 383 -275q0 -129 -115 -212q-129 -93 -359 -93q-200 0 -330 73q-133 74 -133 202zM234 -113q0 -107 101 -164q87 -52 225 -52q198 0 291 97q52 52 52 121q0 190 -353 190q-316 0 -316 -192zM271 687q0 -255 270 -255 q136 0 211 81q64 67 64 182q0 111 -74 184q-77 79 -203 79q-117 0 -193 -75q-75 -75 -75 -196z" />
<glyph unicode="h" horiz-adv-x="1249" vert-adv-y="2027" d="M55 20v57q72 0 113 12q66 18 66 117v1057q0 93 -48 111q-30 14 -129 14v61q167 4 309 32v-653q131 196 339 196q333 0 333 -365v-453q0 -91 47 -111q46 -18 129 -18v-57h-487v57q63 0 111 10q65 18 65 119v426q0 305 -226 305q-220 0 -311 -242v-489q0 -91 48 -111 q45 -18 129 -18v-57h-488z" />
<glyph unicode="i" horiz-adv-x="609" vert-adv-y="2027" d="M77 20v57q68 0 109 12q67 18 67 117v606q0 95 -47 113q-32 12 -129 12v61q167 4 311 34v-826q0 -91 46 -111q45 -18 126 -18v-57h-483zM220 1352q0 103 101 103q43 0 73 -29q30 -32 30 -74q0 -101 -103 -101q-101 0 -101 101z" />
<glyph unicode="j" horiz-adv-x="617" vert-adv-y="2027" d="M-111 -253q0 97 97 97q87 0 87 -84q0 -57 -55 -75q30 -33 83 -33q152 0 152 271v889q0 95 -47 113q-34 14 -129 14v59q167 4 309 34v-1091q0 -345 -285 -345q-93 0 -156 52q-56 45 -56 99zM220 1352q0 103 101 103q41 0 73 -29q30 -32 30 -74q0 -101 -103 -101 q-101 0 -101 101z" />
<glyph unicode="k" horiz-adv-x="1144" vert-adv-y="2027" d="M55 20v57q72 0 113 12q66 18 66 117v1057q0 93 -48 111q-30 14 -129 14v61q167 4 309 32v-960l353 295q63 51 63 81q0 40 -131 42v59h438v-59q-111 -8 -240 -113l-267 -218l325 -386q119 -145 226 -145v-57h-422v57q107 0 107 42q0 22 -48 79l-281 341l-123 -103v-230 q0 -91 48 -111q45 -18 134 -18v-57h-493z" />
<glyph unicode="l" horiz-adv-x="594" vert-adv-y="2027" d="M55 20v57q66 0 111 12q70 16 70 115v1059q0 93 -48 111q-30 14 -131 14v61q163 4 311 32v-1277q0 -91 56 -113q39 -14 122 -14v-57h-491z" />
<glyph unicode="m" horiz-adv-x="1819" vert-adv-y="2027" d="M77 20v57q73 0 111 12q67 18 67 117v606q0 95 -47 113q-34 12 -131 12v61q180 4 309 34v-206q113 198 311 198q240 0 281 -220q109 220 331 220q303 0 303 -365v-453q0 -97 57 -115q40 -14 117 -14h2v-57h-489v57q77 0 125 16q53 16 53 113v422q0 160 -36 221 q-51 90 -162 90q-196 0 -279 -244v-489q0 -93 45 -111q46 -18 133 -18v-57h-493v57q71 0 115 12q65 18 65 117v424q0 166 -33 221q-50 88 -159 88q-200 0 -281 -242v-491q0 -93 44 -111q45 -18 132 -18v-57h-491z" />
<glyph unicode="n" horiz-adv-x="1273" vert-adv-y="2027" d="M77 20v57q73 0 111 12q67 18 67 117v606q0 95 -47 113q-34 12 -131 12v61q174 4 307 34v-214q125 206 345 206q332 0 332 -365v-453q0 -93 58 -115q37 -14 119 -14v-57h-490v57h2q64 0 107 10q68 18 68 119v426q0 305 -226 305q-220 0 -307 -242v-489q0 -93 54 -115 q39 -14 120 -14v-57h-489z" />
<glyph unicode="o" horiz-adv-x="1193" vert-adv-y="2027" d="M117 513q0 241 148 390q133 135 333 135t335 -137q146 -147 146 -382q0 -252 -146 -396q-137 -135 -335 -135q-202 0 -337 135q-144 144 -144 390zM267 513q0 -212 97 -335q89 -113 234 -113q178 0 265 159q66 124 66 287q0 216 -97 340q-91 115 -234 115 q-151 0 -242 -126q-89 -125 -89 -327z" />
<glyph unicode="p" horiz-adv-x="1247" vert-adv-y="2027" d="M57 -293q86 4 125 18q56 14 56 111v974q0 99 -48 115q-34 12 -129 12v61q179 4 307 34v-198q125 194 337 194q172 0 291 -117q141 -143 141 -394q0 -248 -145 -392q-121 -125 -289 -125q-214 0 -331 174v-338q0 -84 46 -107q33 -22 138 -22v-55h-499v55zM372 333 q0 -95 121 -185q89 -65 194 -65q156 0 242 147q65 115 65 283q0 231 -119 346q-83 83 -196 83q-146 0 -243 -134q-64 -87 -64 -159v-316z" />
<glyph unicode="q" horiz-adv-x="1213" vert-adv-y="2027" d="M117 507q0 245 148 394q125 127 299 127q214 0 333 -167l55 153h68v-1178q0 -87 47 -109q40 -20 123 -20v-55h-487v55q87 4 127 18q55 14 55 111v370q-119 -208 -337 -208q-170 0 -289 117q-142 144 -142 392zM259 515q0 -202 95 -321q88 -113 224 -113q143 0 238 133 q67 91 67 172v309q0 101 -119 186q-83 61 -190 61q-144 0 -229 -120q-86 -119 -86 -307z" />
<glyph unicode="r" horiz-adv-x="821" vert-adv-y="2027" d="M77 20v57q73 0 111 12q67 18 67 117v606q0 95 -47 113q-34 12 -129 12v61q174 4 303 34v-260q46 111 141 192q85 68 180 68q117 0 117 -105q0 -93 -85 -93q-86 0 -86 83q0 6 4 29q-79 -7 -162 -103q-65 -77 -99 -188v-449q0 -93 44 -111q45 -18 138 -18v-57h-497z" />
<glyph unicode="s" horiz-adv-x="966" vert-adv-y="2027" d="M127 10v372h61q10 -144 87 -222q99 -101 248 -101q212 0 212 187q0 83 -64 134q-41 34 -196 87l-61 20q-139 46 -186 85q-89 72 -89 184q0 111 83 192q91 86 237 86q127 0 226 -62q30 -16 50 -16q21 0 27 58h52v-315h-58q-15 115 -81 180q-85 85 -204 85q-99 0 -164 -65 q-48 -50 -48 -117q0 -119 206 -184l52 -16q170 -53 239 -107q101 -77 101 -204q0 -150 -113 -225q-89 -62 -217 -62q-113 0 -242 71q-43 26 -67 26q-34 0 -34 -71h-57z" />
<glyph unicode="t" horiz-adv-x="673" vert-adv-y="2027" d="M38 923v63q124 4 176 77q43 64 69 212h60v-277h301v-75h-301v-654q0 -206 126 -206q89 0 163 93l43 -43q-103 -139 -241 -139q-224 0 -224 258v691h-172z" />
<glyph unicode="u" horiz-adv-x="1235" vert-adv-y="2027" d="M44 937v61q170 4 306 34v-658q0 -309 226 -309q105 0 194 72q89 73 123 198v479q0 91 -50 111q-27 12 -126 12v61q152 4 307 34v-826q0 -93 59 -115q40 -14 121 -14v-57h-299l-10 164q-123 -204 -343 -204q-334 0 -334 363v469q0 99 -46 113q-33 10 -128 12z" />
<glyph unicode="v" horiz-adv-x="1081" vert-adv-y="2027" d="M-2 942v56h430v-56q-131 -3 -131 -75q0 -22 14 -55l255 -673l264 671q15 41 15 61q0 68 -144 71v56h394v-56q-125 -3 -170 -116l-345 -854h-71l-337 832q-35 87 -77 115q-30 20 -97 23z" />
<glyph unicode="w" horiz-adv-x="1582" vert-adv-y="2027" d="M-2 942v56h424v-56q-133 -3 -133 -71q0 -24 14 -61l228 -654l239 626l-8 22q-25 85 -55 109q-32 26 -115 29v56h416v-56q-131 -3 -131 -71q0 -18 16 -65l222 -650l220 654q13 39 13 67q0 62 -144 65v56h390v-56q-127 -3 -164 -110l-303 -860h-66l-251 711l-279 -711h-70 l-291 832q-45 135 -172 138z" />
<glyph unicode="x" horiz-adv-x="1055" vert-adv-y="2027" d="M0 20v57q111 0 218 133l247 303l-223 291q-54 71 -94 103q-41 30 -120 32v59h429v-59q-120 -2 -120 -42q0 -22 49 -85l166 -222l200 248q36 43 36 63q0 36 -144 38v59h388v-59q-58 0 -92 -18q-43 -20 -120 -113l-224 -267l246 -325q98 -135 221 -139v-57h-435v57 q120 0 120 40q0 20 -47 87l-190 255l-226 -277q-36 -43 -36 -65q0 -40 139 -40v-57h-388z" />
<glyph unicode="y" horiz-adv-x="1083" vert-adv-y="2027" d="M-2 942v56h430v-56q-131 -3 -131 -67q0 -20 16 -61l269 -634l248 630q13 33 13 57q0 72 -138 75v56h390v-56q-127 -3 -172 -116l-420 -1046q-69 -176 -210 -176q-146 0 -146 117q0 97 97 97q87 0 87 -87q0 -14 -2 -20l-4 -20q71 4 115 125l79 214l-345 774 q-35 81 -71 109q-30 26 -105 29z" />
<glyph unicode="z" horiz-adv-x="934" vert-adv-y="2027" d="M67 20v59l624 858h-251q-167 0 -222 -56q-46 -41 -62 -184h-53l18 301h724v-58l-621 -855h320q161 0 216 54q48 45 62 194h55l-16 -313h-794z" />
<glyph unicode="{" horiz-adv-x="687" vert-adv-y="2027" d="M87 556v50q147 16 147 241v428q0 273 273 273h75v-57h-57q-163 0 -163 -206v-434q0 -223 -176 -269q176 -51 176 -271v-456q0 -203 163 -203h57v-58h-75q-273 0 -273 271v456q0 218 -147 235z" />
<glyph unicode="|" horiz-adv-x="397" vert-adv-y="2027" d="M148 -335v1826h101v-1826h-101z" />
<glyph unicode="}" horiz-adv-x="687" vert-adv-y="2027" d="M103 -348h57q165 0 165 203v456q0 220 176 271q-176 46 -176 269v434q0 206 -165 206h-57v57h77q273 0 273 -273v-428q0 -225 147 -241v-50q-147 -17 -147 -235v-456q0 -271 -273 -271h-77v58z" />
<glyph unicode="~" horiz-adv-x="1013" vert-adv-y="2027" d="M244 1295q39 125 156 125q67 0 164 -62q58 -35 97 -35q62 0 95 73l52 -40q-46 -118 -153 -118q-67 0 -148 49q-77 48 -115 48q-67 0 -97 -74z" />
<glyph unicode="&#xa0;" horiz-adv-x="588" vert-adv-y="2027" />
<glyph unicode="&#xa2;" horiz-adv-x="1136" vert-adv-y="2027" d="M137 830q0 200 118 342q145 168 371 168q39 0 77 -5l63 194h77l-67 -210q226 -74 226 -238q0 -105 -97 -105q-95 0 -95 93q0 60 41 83q-27 70 -95 101l-263 -827q73 -38 160 -38q218 0 361 244l41 -28q-128 -297 -425 -297q-91 0 -167 26l-83 -260h-77l91 289 q-257 137 -257 468zM285 830q0 -240 143 -359l257 806q-30 8 -59 8q-149 0 -246 -135q-95 -128 -95 -320z" />
<glyph unicode="&#xa3;" horiz-adv-x="1500" vert-adv-y="2027" d="M176 287q6 220 246 220q109 0 233 -48q-4 125 -103 371h-275v55h252l-2 4l-6 12q-62 150 -62 269q0 161 103 264q117 124 303 124q137 0 248 -77q115 -79 115 -186q0 -121 -109 -121t-109 105q0 65 53 89q-39 125 -196 125q-130 0 -204 -103q-61 -85 -61 -218 q0 -117 69 -287h402v-55h-382q77 -222 77 -365q0 -35 -2 -59q62 -36 123 -79q160 -115 242 -115q126 0 196 214l43 -22q-75 -331 -251 -331q-107 0 -270 133q-59 49 -107 85q-73 -218 -306 -218q-161 0 -230 115q-26 38 -30 99zM249 287q16 -140 187 -140q166 0 209 209 q-132 80 -235 80q-155 0 -161 -149z" />
<glyph unicode="&#xa5;" horiz-adv-x="1643" vert-adv-y="2027" d="M97 1475v46h572v-46q-204 -6 -204 -71q0 -24 24 -64l228 -358h267l214 337q22 31 22 57q0 87 -188 99v46h497v-46q-153 -12 -256 -172l-206 -321h370v-55h-405l-135 -208v-56h540v-53h-540v-297q0 -97 36 -123q35 -28 150 -34v-45h-505v45q143 10 168 52q18 28 18 105 v297h-540v53h540v16l-156 248h-384v55h350l-218 345q-83 134 -259 148zM750 927l99 -155l99 155h-198z" />
<glyph unicode="&#xa8;" horiz-adv-x="2027" vert-adv-y="2027" d="M616 1430q0 55 43 91q34 23 72 23q29 0 55 -13q59 -34 59 -101q0 -34 -17 -62q-34 -53 -97 -53q-48 0 -80 31q-35 34 -35 84zM1182 1430q0 55 46 91q33 23 69 23q30 0 55 -13q62 -34 62 -101q0 -34 -18 -62q-34 -53 -99 -53q-46 0 -77 31q-38 34 -38 84z" />
<glyph unicode="&#xa9;" horiz-adv-x="2027" vert-adv-y="2027" d="M182 742q0 197 95 377q172 330 531 423q99 28 202 28q265 0 489 -156q346 -248 346 -673q0 -268 -164 -490q-247 -338 -669 -338q-279 0 -507 176q-323 248 -323 653zM273 741q0 -218 123 -404q218 -335 620 -335q220 0 408 125q330 219 330 615q0 155 -67 303 q-143 315 -471 408q-103 30 -198 30q-224 0 -410 -123q-335 -216 -335 -619zM531 739q0 138 59 263q137 281 448 281q138 0 255 -81q30 -20 40 -20q25 0 25 61h60v-312h-62q-23 114 -91 180q-93 93 -222 93q-168 0 -269 -133q-91 -125 -91 -330q0 -157 65 -270 q101 -174 292 -174q263 0 348 277l71 -26q-39 -150 -140 -237q-119 -103 -283 -103q-222 0 -365 154q-140 149 -140 377z" />
<glyph unicode="&#xab;" horiz-adv-x="1025" vert-adv-y="2027" d="M164 578v42l283 396l54 -22l-196 -392l196 -396l-50 -24zM539 578v42l283 396l55 -22l-200 -392l200 -396l-53 -24z" />
<glyph unicode="&#xad;" horiz-adv-x="597" vert-adv-y="2027" d="M81 539v110h438v-110h-438z" />
<glyph unicode="&#xae;" horiz-adv-x="2027" vert-adv-y="2027" d="M182 742q0 197 95 377q172 330 531 423q99 28 202 28q265 0 489 -156q346 -248 346 -673q0 -268 -164 -490q-247 -338 -669 -338q-279 0 -507 176q-323 248 -323 653zM273 741q0 -218 123 -404q218 -335 620 -335q220 0 408 125q330 219 330 615q0 155 -67 303 q-143 315 -471 408q-103 30 -198 30q-224 0 -410 -123q-335 -216 -335 -619zM576 244v67q91 4 121 24q26 19 26 79v675q0 67 -30 83q-28 16 -115 22v69h454q380 0 380 -263q0 -119 -95 -196q-70 -54 -179 -63q66 -32 125 -115q30 -44 121 -214q36 -67 57 -85q28 -18 93 -18 v-65h-221q-107 277 -224 407q-59 66 -158 66h-84v-303q0 -60 28 -81q28 -18 121 -22v-67h-420zM847 790h123q309 0 309 198q0 200 -261 200h-46q-67 0 -91 -12q-34 -14 -34 -87v-299z" />
<glyph unicode="&#xb4;" horiz-adv-x="2027" vert-adv-y="2027" d="M760 1295l266 251h354l-533 -251h-87z" />
<glyph unicode="&#xb8;" horiz-adv-x="1013" vert-adv-y="2027" d="M301 -400q283 4 283 127q0 95 -208 99v33l68 161h102l-59 -135q228 -2 228 -162q0 -192 -392 -196z" />
<glyph unicode="&#xbb;" horiz-adv-x="1025" vert-adv-y="2027" d="M152 206l198 396l-198 392l56 22l283 -396v-42l-287 -396zM529 206l196 396l-196 392l51 22l285 -396v-42l-287 -396z" />
<glyph unicode="&#x2c6;" horiz-adv-x="1013" vert-adv-y="2027" d="M263 1230l204 196h85l202 -196l-37 -44l-210 137l-206 -137z" />
<glyph unicode="&#x2da;" horiz-adv-x="1013" vert-adv-y="2027" />
<glyph unicode="&#x2dc;" horiz-adv-x="1013" vert-adv-y="2027" d="M244 1293q37 125 160 125q65 0 154 -58q66 -39 103 -39q64 0 95 75l54 -40q-50 -118 -155 -118q-69 0 -160 53q-65 42 -103 42q-65 0 -95 -72z" />
<glyph unicode="&#x2000;" horiz-adv-x="853" vert-adv-y="0" />
<glyph unicode="&#x2001;" horiz-adv-x="1707" vert-adv-y="0" />
<glyph unicode="&#x2002;" horiz-adv-x="853" vert-adv-y="0" />
<glyph unicode="&#x2003;" horiz-adv-x="1707" vert-adv-y="0" />
<glyph unicode="&#x2004;" horiz-adv-x="569" vert-adv-y="0" />
<glyph unicode="&#x2005;" horiz-adv-x="426" vert-adv-y="0" />
<glyph unicode="&#x2006;" horiz-adv-x="284" vert-adv-y="0" />
<glyph unicode="&#x2007;" horiz-adv-x="284" vert-adv-y="0" />
<glyph unicode="&#x2008;" horiz-adv-x="213" vert-adv-y="0" />
<glyph unicode="&#x2009;" horiz-adv-x="341" vert-adv-y="0" />
<glyph unicode="&#x200a;" horiz-adv-x="94" vert-adv-y="0" />
<glyph unicode="&#x2010;" horiz-adv-x="597" vert-adv-y="2027" d="M81 539v110h438v-110h-438z" />
<glyph unicode="&#x2011;" horiz-adv-x="597" vert-adv-y="2027" d="M81 539v110h438v-110h-438z" />
<glyph unicode="&#x2012;" horiz-adv-x="597" vert-adv-y="2027" d="M81 539v110h438v-110h-438z" />
<glyph unicode="&#x2013;" horiz-adv-x="1114" vert-adv-y="2027" d="M101 548v92h913v-92h-913z" />
<glyph unicode="&#x2014;" horiz-adv-x="1825" vert-adv-y="2027" d="M0 725v93h1826v-93h-1826z" />
<glyph unicode="&#x2018;" horiz-adv-x="851" vert-adv-y="2027" d="M404 1309q0 95 67 204q70 119 192 194l32 -26q-123 -117 -151 -265q127 -4 127 -125q0 -36 -18 -67q-39 -68 -110 -68q-56 0 -96 42q-43 43 -43 111z" />
<glyph unicode="&#x2019;" horiz-adv-x="851" vert-adv-y="2027" d="M158 1148q125 121 151 266h-2q-24 0 -42 8q-83 27 -83 112q0 38 18 72q40 67 109 67q57 0 97 -41q43 -44 43 -109q0 -97 -67 -206q-69 -119 -192 -194z" />
<glyph unicode="&#x201a;" horiz-adv-x="2027" vert-adv-y="2027" />
<glyph unicode="&#x201c;" horiz-adv-x="1195" vert-adv-y="2027" d="M343 1309q0 95 67 204q69 119 192 194l32 -26q-123 -117 -151 -265q127 -4 127 -125q0 -36 -18 -67q-40 -68 -111 -68q-55 0 -95 42q-43 43 -43 111zM748 1309q0 95 68 204q69 119 192 194l30 -26q-121 -117 -149 -265q127 -4 127 -125q0 -36 -18 -67q-40 -68 -111 -68 q-55 0 -95 42q-44 43 -44 111z" />
<glyph unicode="&#x201d;" horiz-adv-x="1195" vert-adv-y="2027" d="M158 1148q125 121 151 266h-2q-24 0 -42 8q-83 27 -83 112q0 38 18 72q40 67 109 67q57 0 97 -41q43 -44 43 -109q0 -97 -67 -206q-69 -119 -192 -194zM564 1148q123 121 151 266h-2q-24 0 -44 8q-83 27 -83 112q0 38 18 72q40 67 111 67q57 0 97 -41q41 -44 41 -109 q0 -97 -67 -206q-69 -119 -192 -194z" />
<glyph unicode="&#x201e;" horiz-adv-x="2027" vert-adv-y="2027" />
<glyph unicode="&#x2026;" horiz-adv-x="2027" vert-adv-y="2027" d="M214 770q0 58 43 95q34 32 80 32q37 0 69 -22q59 -35 59 -105q0 -47 -35 -85q-38 -40 -91 -40q-30 0 -58 16q-67 34 -67 109zM889 770q0 58 44 95q33 32 79 32q37 0 69 -22q59 -35 59 -105q0 -47 -35 -85q-38 -40 -91 -40q-30 0 -58 16q-67 34 -67 109zM1564 770 q0 58 44 95q33 32 79 32q38 0 69 -22q60 -35 60 -105q0 -47 -36 -85q-38 -40 -91 -40q-30 0 -57 16q-68 34 -68 109z" />
<glyph unicode="&#x202f;" horiz-adv-x="341" vert-adv-y="0" />
<glyph unicode="&#x2039;" horiz-adv-x="2027" vert-adv-y="2027" />
<glyph unicode="&#x203a;" horiz-adv-x="2027" vert-adv-y="2027" />
<glyph unicode="&#x205f;" horiz-adv-x="426" vert-adv-y="0" />
<glyph unicode="&#x2122;" horiz-adv-x="2027" vert-adv-y="2027" />
<glyph unicode="&#x25fc;" horiz-adv-x="999" vert-adv-y="1999" d="M0 0v1000h1000v-1000h-1000z" />
</font>
</defs>
</svg>
